<?xml version="1.0" encoding="utf-8"?>
<!-- Generator: Adobe Illustrator 22.1.0, SVG Export Plug-In . SVG Version: 6.00 Build 0)  -->
<svg version="1.1" id="Слой_1" xmlns="http://www.w3.org/2000/svg" xmlns:xlink="http://www.w3.org/1999/xlink" x="0px" y="0px"
	 viewBox="0 0 28 28" style="enable-background:new 0 0 28 28;" xml:space="preserve">
<style type="text/css">
	.st0{fill:#010101;}
</style>
<path class="st0" d="M14,0C6.3,0,0,6.3,0,14s6.3,14,14,14s14-6.3,14-14S21.7,0,14,0z M19.9,7.8L14,12.2L8.1,7.8H19.9z M7.8,20.2H7.3
	c-0.8,0-1.4-0.6-1.4-1.4v-7.8l1.9,1.4V20.2z M19.3,20.2H8.7V13l5,3.7c0.1,0.1,0.2,0.1,0.3,0.1s0.2,0,0.3-0.1l5-3.7V20.2z M22.1,18.8
	c0,0.8-0.6,1.4-1.4,1.4h-0.5v-7.8l1.9-1.4V18.8z M22.1,9.8c-0.1,0-0.1,0-0.2,0.1L14,15.8L6.1,9.9C6,9.8,6,9.8,5.9,9.8V9.2
	c0-0.6,0.3-1.1,0.8-1.3l7,5.2c0.1,0.1,0.2,0.1,0.3,0.1c0.1,0,0.2,0,0.3-0.1l7-5.2h0h0l0,0c0.5,0.2,0.8,0.7,0.8,1.3V9.8z"/>
</svg>
