<?xml version="1.0" encoding="utf-8"?>
<!-- Generator: Adobe Illustrator 22.1.0, SVG Export Plug-In . SVG Version: 6.00 Build 0)  -->
<svg version="1.1" id="Слой_1" xmlns="http://www.w3.org/2000/svg" xmlns:xlink="http://www.w3.org/1999/xlink" x="0px" y="0px"
	 viewBox="0 0 28 28" style="enable-background:new 0 0 28 28;" xml:space="preserve">
<style type="text/css">
	.st0{fill:#010101;}
</style>
<path class="st0" d="M14,0C6.3,0,0,6.3,0,14s6.3,14,14,14s14-6.3,14-14S21.7,0,14,0z M20.9,9.6l-2.3,10.8c-0.2,0.8-0.6,1-1.3,0.6
	l-3.5-2.6l-1.7,1.6c-0.2,0.2-0.3,0.3-0.7,0.3l0.2-3.6l6.5-5.9c0.3-0.2-0.1-0.4-0.4-0.1l-8,5l-3.5-1.1c-0.8-0.2-0.8-0.8,0.2-1.1h0
	l13.5-5.2C20.5,8.3,21.1,8.6,20.9,9.6L20.9,9.6z"/>
</svg>
